<svg id="logo" xmlns="http://www.w3.org/2000/svg" viewBox="0 0 290.51 53.21"><defs><style>.cls-1{fill:#b00000}.cls-2{fill:#0e0e0e}</style></defs><title>logo</title><g id="logo-2" data-name="logo"><g id="etc"><path class="cls-1" d="M37.32 41.72c-1 6.93-9 9.31-22.89 9.45-.5 6.83 2.16 10.36 7.07 10.36 3.78 0 7.28-1.4 11.48-4.62v6.37a21.76 21.76 0 0 1-12.67 3.92c-9.8 0-14.56-6.65-13-17.85s9-17.85 18.06-17.85c7.4 0 12.86 3.36 11.95 10.22zM24.58 37c-4.83 0-8.33 3.36-9.8 10.22 11.41 0 15-1.54 15.47-5S28.71 37 24.58 37zM57.05 54.39c-.84 6 .77 7.14 3.57 7.14 2.1 0 4.48-1.19 6.51-2.87v6a14.8 14.8 0 0 1-8.47 2.59c-7.14 0-10.22-3.71-9.1-11.9L52 37.87h-5.31l.84-5.67H53l2.66-9.8 6-.7-1.52 10.5h10.5l-.77 5.67h-10.5zM86 49.35c-1.12 8 1.12 12.18 6.44 12.18 3.43 0 6.44-1.4 10.64-4.62v6.37a20.1 20.1 0 0 1-11.79 3.92c-9.8 0-14.63-6.65-13.09-17.85S86.52 31.5 96.33 31.5a17.17 17.17 0 0 1 9.45 2.59l-.91 6.37c-3.43-2.52-6.3-3.29-9-3.29-5.29 0-8.79 4.2-9.87 12.18z" transform="translate(-7 -13.99)"/></g><g id="ovlb"><path class="cls-2" d="M116.27 60.27c0-2.24 4.62-6.86 6.86-6.86s6.93 4.62 6.93 6.86-4.69 6.93-6.93 6.93-6.86-4.69-6.86-6.93zM172.42 48.65c0 11.9-6.16 18.55-17.36 18.55s-17.3-6.65-17.3-17.2c0-11.9 6.09-18.55 17.29-18.55s17.37 6.7 17.37 17.2zm-11.13 1.19c0-8.82-3.15-12.67-7.07-12.67a6.4 6.4 0 0 0-3.36.91c-1.19 1.82-2 5.6-2 10.71 0 8.89 3.15 12.74 7.14 12.74a6.3 6.3 0 0 0 3.29-.91c1.16-1.82 2-5.62 2-10.78zM207.35 66.5h-10.09l-11.48-29.12a28.16 28.16 0 0 1-5.18-1.75l.4-3.43h19.53l.35 3.43-3.92.49 6.51 20.3.24 4.58h.14l.35-4.55 6.23-19.32a27.07 27.07 0 0 1-4.2-1.47l.35-3.43h16.1l.32 3.4-3.64.56zM251.66 66.5h-21v-3.43a28.9 28.9 0 0 1 5.25-1.75v-41.8l-5.25-1.4.34-3.43c4.76-.42 9.73-.7 14.7-.7a27.88 27.88 0 0 1 1 7.7V58.8a30.92 30.92 0 0 1-.21 3.64l5.51.63zM297.51 48.65c0 11.9-6.16 18.55-17.36 18.55a36.74 36.74 0 0 1-10.92-1.68l-1.61 1h-3.15v-47l-5.25-1.4.35-3.43c4.83-.42 9.73-.7 14.7-.7a27.88 27.88 0 0 1 1 7.7V34a16.17 16.17 0 0 1 8.19-2.52c8.17.02 14.05 6.67 14.05 17.17zm-11.13 1.19c0-8.82-2.94-12.67-6.72-12.67a7.37 7.37 0 0 0-4.34 1.47V60.2a10.38 10.38 0 0 0 5.18 1.33 7.23 7.23 0 0 0 3.85-.91c1.19-1.82 2.03-5.62 2.03-10.78z" transform="translate(-7 -13.99)"/></g></g></svg>